<svg width="23" height="24" viewBox="0 0 23 24" fill="none" xmlns="http://www.w3.org/2000/svg">
<path d="M5.28113 23.0375H17.0929C19.9405 23.0375 22.2558 20.7222 22.2558 17.8754V6.06286C22.2558 3.21611 19.9405 0.9 17.0937 0.9H5.28113C2.43435 0.9 0.118262 3.21609 0.118262 6.06286V17.8746C0.118262 20.7222 2.43436 23.0375 5.28113 23.0375ZM2.00588 6.06286C2.00588 4.25655 3.47557 2.78762 5.28113 2.78762H17.0937C18.8992 2.78762 20.3689 4.25732 20.3689 6.06286V17.8754C20.3689 19.681 18.8992 21.1507 17.0937 21.1507H5.28113C3.47481 21.1507 2.00588 19.681 2.00588 17.8754V6.06286Z" fill="white" stroke="white" stroke-width="0.2"/>
<path d="M6.20566 11.9685C6.20566 14.715 8.44027 16.9496 11.1868 16.9496C13.9332 16.9496 16.1679 14.715 16.1679 11.9685C16.1679 9.22201 13.9332 6.9874 11.1868 6.9874C8.44027 6.9874 6.20566 9.22201 6.20566 11.9685ZM8.09328 11.9685C8.09328 10.2625 9.48072 8.87502 11.1868 8.87502C12.8928 8.87502 14.2802 10.2625 14.2802 11.9685C14.2802 13.6745 12.8928 15.062 11.1868 15.062C9.48072 15.062 8.09328 13.6745 8.09328 11.9685Z" fill="white" stroke="white" stroke-width="0.2"/>
<path d="M16.7184 7.80252C17.4725 7.80252 18.0838 7.19125 18.0838 6.4372C18.0838 5.68315 17.4725 5.07187 16.7184 5.07187C15.9644 5.07187 15.3531 5.68315 15.3531 6.4372C15.3531 7.19125 15.9644 7.80252 16.7184 7.80252Z" fill="white" stroke="white" stroke-width="0.2"/>
</svg>
