<svg width="190" height="22" viewBox="0 0 190 22" fill="none" xmlns="http://www.w3.org/2000/svg">
<path d="M0.7 9C0.7 7.62667 1.00667 6.4 1.62 5.32C2.24667 4.22667 3.09333 3.38 4.16 2.78C5.24 2.16667 6.44667 1.86 7.78 1.86C9.34 1.86 10.7067 2.26 11.88 3.06C13.0533 3.86 13.8733 4.96667 14.34 6.38H11.12C10.8 5.71333 10.3467 5.21333 9.76 4.88C9.18667 4.54667 8.52 4.38 7.76 4.38C6.94667 4.38 6.22 4.57333 5.58 4.96C4.95333 5.33333 4.46 5.86667 4.1 6.56C3.75333 7.25333 3.58 8.06667 3.58 9C3.58 9.92 3.75333 10.7333 4.1 11.44C4.46 12.1333 4.95333 12.6733 5.58 13.06C6.22 13.4333 6.94667 13.62 7.76 13.62C8.52 13.62 9.18667 13.4533 9.76 13.12C10.3467 12.7733 10.8 12.2667 11.12 11.6H14.34C13.8733 13.0267 13.0533 14.14 11.88 14.94C10.72 15.7267 9.35333 16.12 7.78 16.12C6.44667 16.12 5.24 15.82 4.16 15.22C3.09333 14.6067 2.24667 13.76 1.62 12.68C1.00667 11.6 0.7 10.3733 0.7 9ZM21.6516 16.18C20.5849 16.18 19.6249 15.9467 18.7716 15.48C17.9182 15 17.2449 14.3267 16.7516 13.46C16.2716 12.5933 16.0316 11.5933 16.0316 10.46C16.0316 9.32667 16.2782 8.32667 16.7716 7.46C17.2782 6.59333 17.9649 5.92667 18.8316 5.46C19.6982 4.98 20.6649 4.74 21.7316 4.74C22.7982 4.74 23.7649 4.98 24.6316 5.46C25.4982 5.92667 26.1782 6.59333 26.6716 7.46C27.1782 8.32667 27.4316 9.32667 27.4316 10.46C27.4316 11.5933 27.1716 12.5933 26.6516 13.46C26.1449 14.3267 25.4516 15 24.5716 15.48C23.7049 15.9467 22.7316 16.18 21.6516 16.18ZM21.6516 13.74C22.1582 13.74 22.6316 13.62 23.0716 13.38C23.5249 13.1267 23.8849 12.7533 24.1516 12.26C24.4182 11.7667 24.5516 11.1667 24.5516 10.46C24.5516 9.40667 24.2716 8.6 23.7116 8.04C23.1649 7.46667 22.4916 7.18 21.6916 7.18C20.8916 7.18 20.2182 7.46667 19.6716 8.04C19.1382 8.6 18.8716 9.40667 18.8716 10.46C18.8716 11.5133 19.1316 12.3267 19.6516 12.9C20.1849 13.46 20.8516 13.74 21.6516 13.74ZM30.9055 3.6C30.4121 3.6 29.9988 3.44667 29.6655 3.14C29.3455 2.82 29.1855 2.42667 29.1855 1.96C29.1855 1.49333 29.3455 1.10667 29.6655 0.799999C29.9988 0.479999 30.4121 0.319999 30.9055 0.319999C31.3988 0.319999 31.8055 0.479999 32.1255 0.799999C32.4588 1.10667 32.6255 1.49333 32.6255 1.96C32.6255 2.42667 32.4588 2.82 32.1255 3.14C31.8055 3.44667 31.3988 3.6 30.9055 3.6ZM32.2855 4.92V16H29.4855V4.92H32.2855ZM41.1919 4.76C42.5119 4.76 43.5785 5.18 44.3919 6.02C45.2052 6.84667 45.6119 8.00667 45.6119 9.5V16H42.8119V9.88C42.8119 9 42.5919 8.32667 42.1519 7.86C41.7119 7.38 41.1119 7.14 40.3519 7.14C39.5785 7.14 38.9652 7.38 38.5119 7.86C38.0719 8.32667 37.8519 9 37.8519 9.88V16H35.0519V4.92H37.8519V6.3C38.2252 5.82 38.6985 5.44667 39.2719 5.18C39.8585 4.9 40.4985 4.76 41.1919 4.76ZM58.4545 6.36C58.4545 7.10667 58.2745 7.80667 57.9145 8.46C57.5679 9.11333 57.0145 9.64 56.2545 10.04C55.5079 10.44 54.5612 10.64 53.4145 10.64H51.0745V16H48.2745V2.04H53.4145C54.4945 2.04 55.4145 2.22667 56.1745 2.6C56.9345 2.97333 57.5012 3.48667 57.8745 4.14C58.2612 4.79333 58.4545 5.53333 58.4545 6.36ZM53.2945 8.38C54.0679 8.38 54.6412 8.20667 55.0145 7.86C55.3879 7.5 55.5745 7 55.5745 6.36C55.5745 5 54.8145 4.32 53.2945 4.32H51.0745V8.38H53.2945ZM59.7225 10.42C59.7225 9.3 59.9425 8.30667 60.3825 7.44C60.8358 6.57333 61.4425 5.90667 62.2025 5.44C62.9758 4.97333 63.8358 4.74 64.7825 4.74C65.6092 4.74 66.3292 4.90667 66.9425 5.24C67.5692 5.57333 68.0692 5.99333 68.4425 6.5V4.92H71.2625V16H68.4425V14.38C68.0825 14.9 67.5825 15.3333 66.9425 15.68C66.3158 16.0133 65.5892 16.18 64.7625 16.18C63.8292 16.18 62.9758 15.94 62.2025 15.46C61.4425 14.98 60.8358 14.3067 60.3825 13.44C59.9425 12.56 59.7225 11.5533 59.7225 10.42ZM68.4425 10.46C68.4425 9.78 68.3092 9.2 68.0425 8.72C67.7758 8.22667 67.4158 7.85333 66.9625 7.6C66.5092 7.33333 66.0225 7.2 65.5025 7.2C64.9825 7.2 64.5025 7.32667 64.0625 7.58C63.6225 7.83333 63.2625 8.20667 62.9825 8.7C62.7158 9.18 62.5825 9.75333 62.5825 10.42C62.5825 11.0867 62.7158 11.6733 62.9825 12.18C63.2625 12.6733 63.6225 13.0533 64.0625 13.32C64.5158 13.5867 64.9958 13.72 65.5025 13.72C66.0225 13.72 66.5092 13.5933 66.9625 13.34C67.4158 13.0733 67.7758 12.7 68.0425 12.22C68.3092 11.7267 68.4425 11.14 68.4425 10.46ZM84.5972 4.92L77.7372 21.24H74.7572L77.1572 15.72L72.7172 4.92H75.8572L78.7172 12.66L81.6172 4.92H84.5972ZM99.8666 4.76C101.227 4.76 102.32 5.18 103.147 6.02C103.987 6.84667 104.407 8.00667 104.407 9.5V16H101.607V9.88C101.607 9.01333 101.387 8.35333 100.947 7.9C100.507 7.43333 99.9066 7.2 99.1466 7.2C98.3866 7.2 97.7799 7.43333 97.3266 7.9C96.8866 8.35333 96.6666 9.01333 96.6666 9.88V16H93.8666V9.88C93.8666 9.01333 93.6466 8.35333 93.2066 7.9C92.7666 7.43333 92.1666 7.2 91.4066 7.2C90.6332 7.2 90.0199 7.43333 89.5666 7.9C89.1266 8.35333 88.9066 9.01333 88.9066 9.88V16H86.1066V4.92H88.9066V6.26C89.2666 5.79333 89.7266 5.42667 90.2866 5.16C90.8599 4.89333 91.4866 4.76 92.1666 4.76C93.0332 4.76 93.8066 4.94667 94.4866 5.32C95.1666 5.68 95.6932 6.2 96.0666 6.88C96.4266 6.24 96.9466 5.72667 97.6266 5.34C98.3199 4.95333 99.0666 4.76 99.8666 4.76ZM117.364 10.22C117.364 10.62 117.337 10.98 117.284 11.3H109.184C109.25 12.1 109.53 12.7267 110.024 13.18C110.517 13.6333 111.124 13.86 111.844 13.86C112.884 13.86 113.624 13.4133 114.064 12.52H117.084C116.764 13.5867 116.15 14.4667 115.244 15.16C114.337 15.84 113.224 16.18 111.904 16.18C110.837 16.18 109.877 15.9467 109.024 15.48C108.184 15 107.524 14.3267 107.044 13.46C106.577 12.5933 106.344 11.5933 106.344 10.46C106.344 9.31333 106.577 8.30667 107.044 7.44C107.51 6.57333 108.164 5.90667 109.004 5.44C109.844 4.97333 110.81 4.74 111.904 4.74C112.957 4.74 113.897 4.96667 114.724 5.42C115.564 5.87333 116.21 6.52 116.664 7.36C117.13 8.18667 117.364 9.14 117.364 10.22ZM114.464 9.42C114.45 8.7 114.19 8.12667 113.684 7.7C113.177 7.26 112.557 7.04 111.824 7.04C111.13 7.04 110.544 7.25333 110.064 7.68C109.597 8.09333 109.31 8.67333 109.204 9.42H114.464ZM125.547 4.76C126.867 4.76 127.934 5.18 128.747 6.02C129.561 6.84667 129.967 8.00667 129.967 9.5V16H127.167V9.88C127.167 9 126.947 8.32667 126.507 7.86C126.067 7.38 125.467 7.14 124.707 7.14C123.934 7.14 123.321 7.38 122.867 7.86C122.427 8.32667 122.207 9 122.207 9.88V16H119.407V4.92H122.207V6.3C122.581 5.82 123.054 5.44667 123.627 5.18C124.214 4.9 124.854 4.76 125.547 4.76ZM135.89 7.22V12.58C135.89 12.9533 135.977 13.2267 136.15 13.4C136.337 13.56 136.643 13.64 137.07 13.64H138.37V16H136.61C134.25 16 133.07 14.8533 133.07 12.56V7.22H131.75V4.92H133.07V2.18H135.89V4.92H138.37V7.22H135.89ZM144.624 16.18C143.717 16.18 142.904 16.02 142.184 15.7C141.464 15.3667 140.891 14.92 140.464 14.36C140.051 13.8 139.824 13.18 139.784 12.5H142.604C142.657 12.9267 142.864 13.28 143.224 13.56C143.597 13.84 144.057 13.98 144.604 13.98C145.137 13.98 145.551 13.8733 145.844 13.66C146.151 13.4467 146.304 13.1733 146.304 12.84C146.304 12.48 146.117 12.2133 145.744 12.04C145.384 11.8533 144.804 11.6533 144.004 11.44C143.177 11.24 142.497 11.0333 141.964 10.82C141.444 10.6067 140.991 10.28 140.604 9.84C140.231 9.4 140.044 8.80667 140.044 8.06C140.044 7.44667 140.217 6.88667 140.564 6.38C140.924 5.87333 141.431 5.47333 142.084 5.18C142.751 4.88667 143.531 4.74 144.424 4.74C145.744 4.74 146.797 5.07333 147.584 5.74C148.371 6.39333 148.804 7.28 148.884 8.4H146.204C146.164 7.96 145.977 7.61333 145.644 7.36C145.324 7.09333 144.891 6.96 144.344 6.96C143.837 6.96 143.444 7.05333 143.164 7.24C142.897 7.42667 142.764 7.68667 142.764 8.02C142.764 8.39333 142.951 8.68 143.324 8.88C143.697 9.06667 144.277 9.26 145.064 9.46C145.864 9.66 146.524 9.86667 147.044 10.08C147.564 10.2933 148.011 10.6267 148.384 11.08C148.771 11.52 148.971 12.1067 148.984 12.84C148.984 13.48 148.804 14.0533 148.444 14.56C148.097 15.0667 147.591 15.4667 146.924 15.76C146.271 16.04 145.504 16.18 144.624 16.18ZM157.522 4.76C158.362 4.76 159.109 4.94667 159.762 5.32C160.416 5.68 160.922 6.22 161.282 6.94C161.656 7.64667 161.842 8.5 161.842 9.5V16H159.042V9.88C159.042 9 158.822 8.32667 158.382 7.86C157.942 7.38 157.342 7.14 156.582 7.14C155.809 7.14 155.196 7.38 154.742 7.86C154.302 8.32667 154.082 9 154.082 9.88V16H151.282V1.2H154.082V6.3C154.442 5.82 154.922 5.44667 155.522 5.18C156.122 4.9 156.789 4.76 157.522 4.76ZM174.965 4.92V16H172.145V14.6C171.785 15.08 171.312 15.46 170.725 15.74C170.152 16.0067 169.525 16.14 168.845 16.14C167.978 16.14 167.212 15.96 166.545 15.6C165.878 15.2267 165.352 14.6867 164.965 13.98C164.592 13.26 164.405 12.4067 164.405 11.42V4.92H167.205V11.02C167.205 11.9 167.425 12.58 167.865 13.06C168.305 13.5267 168.905 13.76 169.665 13.76C170.438 13.76 171.045 13.5267 171.485 13.06C171.925 12.58 172.145 11.9 172.145 11.02V4.92H174.965ZM180.528 6.54C180.888 6.00667 181.381 5.57333 182.008 5.24C182.648 4.90667 183.374 4.74 184.188 4.74C185.134 4.74 185.988 4.97333 186.748 5.44C187.521 5.90667 188.128 6.57333 188.568 7.44C189.021 8.29333 189.248 9.28667 189.248 10.42C189.248 11.5533 189.021 12.56 188.568 13.44C188.128 14.3067 187.521 14.98 186.748 15.46C185.988 15.94 185.134 16.18 184.188 16.18C183.361 16.18 182.634 16.02 182.008 15.7C181.394 15.3667 180.901 14.94 180.528 14.42V16H177.728V1.2H180.528V6.54ZM186.388 10.42C186.388 9.75333 186.248 9.18 185.968 8.7C185.701 8.20667 185.341 7.83333 184.888 7.58C184.448 7.32667 183.968 7.2 183.448 7.2C182.941 7.2 182.461 7.33333 182.008 7.6C181.568 7.85333 181.208 8.22667 180.928 8.72C180.661 9.21333 180.528 9.79333 180.528 10.46C180.528 11.1267 180.661 11.7067 180.928 12.2C181.208 12.6933 181.568 13.0733 182.008 13.34C182.461 13.5933 182.941 13.72 183.448 13.72C183.968 13.72 184.448 13.5867 184.888 13.32C185.341 13.0533 185.701 12.6733 185.968 12.18C186.248 11.6867 186.388 11.1 186.388 10.42Z" fill="black"/>
</svg>
