<svg width="24" height="16" viewBox="0 0 24 16" fill="none" xmlns="http://www.w3.org/2000/svg">
<path d="M21.1578 1.42832L21.1578 1.42829C21.1817 1.10472 21.4397 0.847548 21.7574 0.847548H22.4312C22.7882 0.847548 23.0601 1.16843 23.0355 1.53013C23.0355 1.53015 23.0355 1.53018 23.0355 1.53021L22.9357 1.52341C22.7467 4.33067 21.1873 6.74198 18.9643 8.00806L21.1578 1.42832ZM21.1578 1.42832C20.9254 4.58753 18.4287 7.07388 15.4025 7.07388H13.5438V1.80703C13.5438 1.26528 13.1283 0.816992 12.6039 0.816992H10.2308C9.89198 0.816992 9.62699 1.10631 9.62699 1.45133V2.16351C9.62699 2.50853 9.89198 2.79785 10.2308 2.79785H11.664V13.352C9.48578 12.9991 7.34246 11.4587 5.70276 9.29826C4.03554 7.10161 2.89877 4.27622 2.77869 1.44239C2.76477 1.11086 2.49742 0.847548 2.17578 0.847548H1.50356C1.14824 0.847548 0.885335 1.1623 0.900645 1.51889C1.04618 5.06665 2.52935 8.53609 4.69344 11.1192C6.8564 13.7009 9.71079 15.4096 12.6047 15.4096C13.1292 15.4096 13.5446 14.9604 13.5446 14.4195V9.05631M21.1578 1.42832L13.5446 9.05631M23.0355 14.6001C22.8457 11.7816 21.2904 9.35541 19.0651 8.06546L22.9357 14.6068M23.0355 14.6001L22.9357 14.6068M23.0355 14.6001C23.0355 14.6 23.0355 14.6 23.0355 14.6L22.9357 14.6068M23.0355 14.6001C23.0601 14.9618 22.7882 15.2826 22.4312 15.2826H21.7574C21.439 15.2826 21.1817 15.0263 21.1578 14.7019L21.2575 14.6945M22.9357 14.6068C22.9569 14.917 22.7242 15.1826 22.4312 15.1826H21.7574C21.4957 15.1826 21.2779 14.9711 21.2575 14.6945M21.2575 14.6945L21.1578 14.7019C20.9254 11.5426 18.4286 9.05631 15.4033 9.05631H13.5446M21.2575 14.6945L13.5446 9.05631" fill="white" stroke="white" stroke-width="0.2"/>
</svg>
