<svg width="24" height="22" viewBox="0 0 24 22" fill="none" xmlns="http://www.w3.org/2000/svg">
<path d="M17.247 20.6433L17.2471 20.6434C17.5044 20.8444 17.8144 20.949 18.129 20.949C18.2978 20.949 18.4667 20.9186 18.6308 20.8592L18.6316 20.8589C19.102 20.6838 19.4417 20.2851 19.5394 19.7927L19.5394 19.7926L23.08 1.88144L23.08 1.88121C23.1568 1.48781 23.0118 1.08557 22.7012 0.831885L22.7011 0.831799C22.3896 0.578175 21.9674 0.516863 21.5964 0.67215L21.5964 0.672182L1.84085 8.96143L1.84076 8.96146C1.29449 9.19125 0.948922 9.72304 0.962392 10.3165C0.97586 10.91 1.34501 11.4258 1.90144 11.6304L5.94348 13.1167L7.75901 18.3962C7.91654 18.8554 8.29182 19.1986 8.76292 19.3141C9.23384 19.4295 9.72544 19.2997 10.0776 18.9669L10.009 18.8942L10.0776 18.9669L12.3561 16.8134L17.247 20.6433ZM17.876 18.8263L11.2146 13.6111L15.1405 9.73355L15.1405 9.73353C15.3781 9.49877 15.3799 9.11503 15.1453 8.87761C15.1453 8.8776 15.1453 8.87759 15.1453 8.87758L14.7191 8.44591L14.7189 8.44574C14.4835 8.20841 14.0998 8.20644 13.8623 8.44112L9.34492 12.9045C9.12295 13.123 9.00652 13.4268 9.02377 13.7374L9.02379 13.7376C9.0419 14.0482 9.19206 14.3365 9.43807 14.529L10.9088 15.6804L9.2774 17.2224L7.53216 12.1473C7.53216 12.1473 7.53215 12.1473 7.53215 12.1473C7.43696 11.8696 7.22135 11.6497 6.9464 11.5484L6.94634 11.5484L3.44381 10.2611L21.0281 2.88096L17.876 18.8263ZM21.635 0.764394L21.635 0.764391L21.635 0.764394Z" fill="white" stroke="white" stroke-width="0.2"/>
</svg>
